<?xml version="1.0" standalone="no"?>
<!DOCTYPE svg PUBLIC "-//W3C//DTD SVG 1.1//EN"
   "http://www.w3.org/Graphics/SVG/1.1/DTD/svg11.dtd">
<svg width="115" height="59" version="1.1"
   xmlns="http://www.w3.org/2000/svg">
   <desc>Zint Generated Symbol
   </desc>

   <g id="barcode" fill="#000000">
      <rect x="0" y="0" width="115" height="59" fill="#FFFFFF" />
      <rect x="10.00" y="0.00" width="1.00" height="50.00" />
      <rect x="12.00" y="0.00" width="1.00" height="50.00" />
      <rect x="15.00" y="0.00" width="2.00" height="50.00" />
      <rect x="19.00" y="0.00" width="1.00" height="50.00" />
      <rect x="22.00" y="0.00" width="1.00" height="50.00" />
      <rect x="25.00" y="0.00" width="2.00" height="50.00" />
      <rect x="28.00" y="0.00" width="4.00" height="50.00" />
      <rect x="33.00" y="0.00" width="1.00" height="50.00" />
      <rect x="35.00" y="0.00" width="1.00" height="50.00" />
      <rect x="39.00" y="0.00" width="2.00" height="50.00" />
      <rect x="42.00" y="0.00" width="2.00" height="50.00" />
      <rect x="47.00" y="0.00" width="1.00" height="50.00" />
      <rect x="49.00" y="0.00" width="1.00" height="50.00" />
      <rect x="51.00" y="0.00" width="4.00" height="50.00" />
      <rect x="56.00" y="0.00" width="1.00" height="50.00" />
      <rect x="58.00" y="0.00" width="1.00" height="50.00" />
      <rect x="60.00" y="0.00" width="1.00" height="50.00" />
      <rect x="64.00" y="0.00" width="1.00" height="50.00" />
      <rect x="67.00" y="0.00" width="1.00" height="50.00" />
      <rect x="70.00" y="0.00" width="1.00" height="50.00" />
      <rect x="74.00" y="0.00" width="3.00" height="50.00" />
      <rect x="78.00" y="0.00" width="1.00" height="50.00" />
      <rect x="81.00" y="0.00" width="3.00" height="50.00" />
      <rect x="86.00" y="0.00" width="1.00" height="50.00" />
      <rect x="88.00" y="0.00" width="2.00" height="50.00" />
      <rect x="92.00" y="0.00" width="2.00" height="50.00" />
      <rect x="95.00" y="0.00" width="2.00" height="50.00" />
      <rect x="98.00" y="0.00" width="2.00" height="50.00" />
      <rect x="102.00" y="0.00" width="1.00" height="50.00" />
      <rect x="104.00" y="0.00" width="1.00" height="50.00" />
      <rect x="10.00" y="50.00" width="1.00" height="5.00" />
      <rect x="12.00" y="50.00" width="1.00" height="5.00" />
      <rect x="15.00" y="50.00" width="2.00" height="5.00" />
      <rect x="19.00" y="50.00" width="1.00" height="5.00" />
      <rect x="56.00" y="50.00" width="1.00" height="5.00" />
      <rect x="58.00" y="50.00" width="1.00" height="5.00" />
      <rect x="95.00" y="50.00" width="2.00" height="5.00" />
      <rect x="98.00" y="50.00" width="2.00" height="5.00" />
      <rect x="102.00" y="50.00" width="1.00" height="5.00" />
      <rect x="104.00" y="50.00" width="1.00" height="5.00" />
      <text x="5.00" y="59.00" text-anchor="middle"
         font-family="Helvetica" font-size="8.0" fill="#000000" >
          
      </text>
      <text x="37.00" y="59.00" text-anchor="middle"
         font-family="Helvetica" font-size="11.0" fill="#000000" >
              
      </text>
      <text x="78.00" y="59.00" text-anchor="middle"
         font-family="Helvetica" font-size="11.0" fill="#000000" >
              
      </text>
      <text x="110.00" y="59.00" text-anchor="middle"
         font-family="Helvetica" font-size="8.0" fill="#000000" >
          
      </text>
   </g>
</svg>
